<?xml version="1.0" encoding="utf-8"?>
<!-- Generator: Adobe Illustrator 22.0.0, SVG Export Plug-In . SVG Version: 6.00 Build 0)  -->
<svg version="1.0" id="Layer_1" xmlns="http://www.w3.org/2000/svg" xmlns:xlink="http://www.w3.org/1999/xlink" x="0px" y="0px"
	 viewBox="0 0 4229 3274" style="enable-background:new 0 0 4229 3274;" xml:space="preserve">
<style type="text/css">
	.st0{fill:#414042;}
</style>
<path class="st0" d="M1229.3,2658.6l-364.2-68.3c-30.9-5.8-35.5-48.1-6.5-60.4l1083.1-459.2c25.8-10.9,52.1,14.5,42,40.7
	l-426.3,1100.2c-11.8,30.4-56.2,25.4-61-6.8l-55.4-370.9l-337.3,386.4c-16.4,18.8-45.3,19.8-63,2.1l-207.2-207.2
	c-18.6-18.6-16.4-49.4,4.7-65.1L1229.3,2658.6z"/>
<g>
	<polygon class="st0" points="1111.1,2686 1100.2,2683.9 1100.2,2694.1 	"/>
	<path class="st0" d="M3515.4,2420H1916.3l-37.7,97.4h1588.1V2997h-1774l-37.7,97.4h1860.4c26.9,0,48.7-21.8,48.7-48.7v-577
		C3564.1,2441.8,3542.3,2420,3515.4,2420z"/>
	<polygon class="st0" points="1416.2,2997 1363.3,2997 1278.3,3094.4 1430.7,3094.4 	"/>
</g>
<path class="st0" d="M3515.4,1704.2H1148.9c-26.9,0-48.7,21.8-48.7,48.7v577c0,15,6.8,28.4,17.4,37.3l202.8-86h-122.8v-479.6h2269.1
	v479.6H1970.1l-37.7,97.4h1583c26.9,0,48.7-21.8,48.7-48.7v-577C3564.1,1726,3542.3,1704.2,3515.4,1704.2z"/>
<g>
	<path class="st0" d="M2281,1597.1c-208.1,0-403.7-81-550.9-228.2C1583,1221.7,1502,1026.1,1502,818s81-403.7,228.2-550.9
		C1877.3,120,2072.9,38.9,2281,38.9c208.1,0,403.7,81,550.9,228.2c147.1,147.1,228.2,342.8,228.2,550.9s-81,403.7-228.2,550.9
		C2684.8,1516,2489.1,1597.1,2281,1597.1z M2281,136.3c-375.9,0-681.7,305.8-681.7,681.7s305.8,681.7,681.7,681.7
		s681.7-305.8,681.7-681.7S2656.9,136.3,2281,136.3z"/>
</g>
<g>
	
		<ellipse transform="matrix(0.7071 -0.7071 0.7071 0.7071 207.3212 1803.7993)" class="st0" cx="2281" cy="651.6" rx="207.5" ry="207.5"/>
	<path class="st0" d="M2448.3,818.6c-42.8,42.9-102,69.5-167.3,69.5c-65.3,0-124.4-26.6-167.3-69.5
		c-117.2,60.6-197.4,183-197.4,324.1v49.2h729.3v-49.2C2645.7,1001.6,2565.5,879.2,2448.3,818.6z"/>
</g>
<ellipse transform="matrix(0.9732 -0.2298 0.2298 0.9732 -381.819 803.5511)" class="st0" cx="3259.8" cy="2041.4" rx="63.9" ry="63.9"/>
<ellipse transform="matrix(0.9732 -0.2298 0.2298 0.9732 -388.8694 742.9987)" class="st0" cx="2996.2" cy="2041.4" rx="63.9" ry="63.9"/>
<ellipse transform="matrix(0.7071 -0.7071 0.7071 0.7071 -643.1211 2530.1968)" class="st0" cx="2732.7" cy="2041.4" rx="63.9" ry="63.9"/>
<ellipse transform="matrix(0.9732 -0.2298 0.2298 0.9732 -402.9701 621.8939)" class="st0" cx="2469.1" cy="2041.4" rx="63.9" ry="63.9"/>
<ellipse transform="matrix(0.9732 -0.2298 0.2298 0.9732 -410.0204 561.3416)" class="st0" cx="2205.5" cy="2041.4" rx="63.9" ry="63.9"/>
</svg>
